<?xml version="1.0" encoding="UTF-8" standalone="no"?>
<svg width="27px" height="13px" viewBox="0 0 27 13" version="1.1" xmlns="http://www.w3.org/2000/svg" xmlns:xlink="http://www.w3.org/1999/xlink">
    <!-- Generator: Sketch 3.6.1 (26313) - http://www.bohemiancoding.com/sketch -->
    <title>HD</title>
    <desc>Created with Sketch.</desc>
    <defs></defs>
    <g id="Design" stroke="none" stroke-width="1" fill="none" fill-rule="evenodd">
        <g id="Desktop" transform="translate(-449.000000, -2273.000000)" fill="#2A1A04">
            <g id="About-R18" transform="translate(0.000000, 2084.000000)">
                <g id="r18-details" transform="translate(449.000000, 141.000000)">
                    <g id="Group-6" transform="translate(0.000000, 44.000000)">
                        <path d="M12.2719486,16.7299995 L12.2719486,4 L8.41668635,4 L8.41668635,8.50416775 L3.85526223,8.50416775 L3.85526223,4 L0,4 L0,16.7299995 L3.85526223,16.7299995 L3.85526223,11.8632081 L8.41668635,11.8632081 L8.41668635,16.7299995 L12.2719486,16.7299995 Z M20.0397294,16.7299995 C24.0285898,16.7299995 27.0059211,14.4206593 27.0059211,10.355457 C27.0059211,6.29025479 24.0285898,4 20.020644,4 L14.3331779,4 L14.3331779,16.7299995 L20.0397294,16.7299995 Z M20.020644,13.3709592 L18.1884401,13.3709592 L18.1884401,7.35904036 L20.0397294,7.35904036 C22.1009587,7.35904036 23.0934025,8.63776595 23.0934025,10.355457 C23.0934025,11.9586354 21.9482751,13.3709592 20.020644,13.3709592 L20.020644,13.3709592 Z" id="HD"></path>
                    </g>
                </g>
            </g>
        </g>
    </g>
</svg>