<?xml version="1.0" encoding="UTF-8" standalone="no"?>
<svg width="27px" height="24px" viewBox="0 0 27 24" version="1.1" xmlns="http://www.w3.org/2000/svg" xmlns:xlink="http://www.w3.org/1999/xlink">
    <!-- Generator: Sketch 3.6.1 (26313) - http://www.bohemiancoding.com/sketch -->
    <title></title>
    <desc>Created with Sketch.</desc>
    <defs></defs>
    <g id="Design" stroke="none" stroke-width="1" fill="none" fill-rule="evenodd">
        <g id="Desktop" transform="translate(-449.000000, -2225.000000)" fill="#2A1A04">
            <g id="About-R18" transform="translate(0.000000, 2084.000000)">
                <g id="r18-details" transform="translate(449.000000, 141.000000)">
                    <g id="Group-7">
                        <path d="M5.39999991,20.6999997 L5.39999991,18.8999997 C5.39999991,18.6562485 5.3109383,18.4453131 5.13281242,18.2671872 C4.95468653,18.0890613 4.74375114,17.9999997 4.49999993,17.9999997 L2.69999996,17.9999997 C2.45624874,17.9999997 2.24531335,18.0890613 2.06718747,18.2671872 C1.88906158,18.4453131 1.79999997,18.6562485 1.79999997,18.8999997 L1.79999997,20.6999997 C1.79999997,20.9437509 1.88906158,21.1546863 2.06718747,21.3328122 C2.24531335,21.510938 2.45624874,21.5999996 2.69999996,21.5999996 L4.49999993,21.5999996 C4.74375114,21.5999996 4.95468653,21.510938 5.13281242,21.3328122 C5.3109383,21.1546863 5.39999991,20.9437509 5.39999991,20.6999997 L5.39999991,20.6999997 Z M5.39999991,15.2999998 L5.39999991,13.4999998 C5.39999991,13.2562486 5.3109383,13.0453132 5.13281242,12.8671873 C4.95468653,12.6890614 4.74375114,12.5999998 4.49999993,12.5999998 L2.69999996,12.5999998 C2.45624874,12.5999998 2.24531335,12.6890614 2.06718747,12.8671873 C1.88906158,13.0453132 1.79999997,13.2562486 1.79999997,13.4999998 L1.79999997,15.2999998 C1.79999997,15.543751 1.88906158,15.7546864 2.06718747,15.9328122 C2.24531335,16.1109381 2.45624874,16.1999997 2.69999996,16.1999997 L4.49999993,16.1999997 C4.74375114,16.1999997 4.95468653,16.1109381 5.13281242,15.9328122 C5.3109383,15.7546864 5.39999991,15.543751 5.39999991,15.2999998 L5.39999991,15.2999998 Z M5.39999991,9.89999984 L5.39999991,8.09999987 C5.39999991,7.85624865 5.3109383,7.64531327 5.13281242,7.46718738 C4.95468653,7.28906149 4.74375114,7.19999988 4.49999993,7.19999988 L2.69999996,7.19999988 C2.45624874,7.19999988 2.24531335,7.28906149 2.06718747,7.46718738 C1.88906158,7.64531327 1.79999997,7.85624865 1.79999997,8.09999987 L1.79999997,9.89999984 C1.79999997,10.1437511 1.88906158,10.3546864 2.06718747,10.5328123 C2.24531335,10.7109382 2.45624874,10.7999998 2.69999996,10.7999998 L4.49999993,10.7999998 C4.74375114,10.7999998 4.95468653,10.7109382 5.13281242,10.5328123 C5.3109383,10.3546864 5.39999991,10.1437511 5.39999991,9.89999984 L5.39999991,9.89999984 Z M19.7999997,20.6999997 L19.7999997,13.4999998 C19.7999997,13.2562486 19.7109381,13.0453132 19.5328122,12.8671873 C19.3546863,12.6890614 19.1437509,12.5999998 18.8999997,12.5999998 L8.09999987,12.5999998 C7.85624865,12.5999998 7.64531327,12.6890614 7.46718738,12.8671873 C7.28906149,13.0453132 7.19999988,13.2562486 7.19999988,13.4999998 L7.19999988,20.6999997 C7.19999988,20.9437509 7.28906149,21.1546863 7.46718738,21.3328122 C7.64531327,21.510938 7.85624865,21.5999996 8.09999987,21.5999996 L18.8999997,21.5999996 C19.1437509,21.5999996 19.3546863,21.510938 19.5328122,21.3328122 C19.7109381,21.1546863 19.7999997,20.9437509 19.7999997,20.6999997 L19.7999997,20.6999997 Z M5.39999991,4.49999993 L5.39999991,2.69999996 C5.39999991,2.45624874 5.3109383,2.24531335 5.13281242,2.06718747 C4.95468653,1.88906158 4.74375114,1.79999997 4.49999993,1.79999997 L2.69999996,1.79999997 C2.45624874,1.79999997 2.24531335,1.88906158 2.06718747,2.06718747 C1.88906158,2.24531335 1.79999997,2.45624874 1.79999997,2.69999996 L1.79999997,4.49999993 C1.79999997,4.74375114 1.88906158,4.95468653 2.06718747,5.13281242 C2.24531335,5.3109383 2.45624874,5.39999991 2.69999996,5.39999991 L4.49999993,5.39999991 C4.74375114,5.39999991 4.95468653,5.3109383 5.13281242,5.13281242 C5.3109383,4.95468653 5.39999991,4.74375114 5.39999991,4.49999993 L5.39999991,4.49999993 Z M25.1999996,20.6999997 L25.1999996,18.8999997 C25.1999996,18.6562485 25.110938,18.4453131 24.9328121,18.2671872 C24.7546862,18.0890613 24.5437508,17.9999997 24.2999996,17.9999997 L22.4999996,17.9999997 C22.2562484,17.9999997 22.045313,18.0890613 21.8671871,18.2671872 C21.6890613,18.4453131 21.5999996,18.6562485 21.5999996,18.8999997 L21.5999996,20.6999997 C21.5999996,20.9437509 21.6890613,21.1546863 21.8671871,21.3328122 C22.045313,21.510938 22.2562484,21.5999996 22.4999996,21.5999996 L24.2999996,21.5999996 C24.5437508,21.5999996 24.7546862,21.510938 24.9328121,21.3328122 C25.110938,21.1546863 25.1999996,20.9437509 25.1999996,20.6999997 L25.1999996,20.6999997 Z M19.7999997,9.89999984 L19.7999997,2.69999996 C19.7999997,2.45624874 19.7109381,2.24531335 19.5328122,2.06718747 C19.3546863,1.88906158 19.1437509,1.79999997 18.8999997,1.79999997 L8.09999987,1.79999997 C7.85624865,1.79999997 7.64531327,1.88906158 7.46718738,2.06718747 C7.28906149,2.24531335 7.19999988,2.45624874 7.19999988,2.69999996 L7.19999988,9.89999984 C7.19999988,10.1437511 7.28906149,10.3546864 7.46718738,10.5328123 C7.64531327,10.7109382 7.85624865,10.7999998 8.09999987,10.7999998 L18.8999997,10.7999998 C19.1437509,10.7999998 19.3546863,10.7109382 19.5328122,10.5328123 C19.7109381,10.3546864 19.7999997,10.1437511 19.7999997,9.89999984 L19.7999997,9.89999984 Z M25.1999996,15.2999998 L25.1999996,13.4999998 C25.1999996,13.2562486 25.110938,13.0453132 24.9328121,12.8671873 C24.7546862,12.6890614 24.5437508,12.5999998 24.2999996,12.5999998 L22.4999996,12.5999998 C22.2562484,12.5999998 22.045313,12.6890614 21.8671871,12.8671873 C21.6890613,13.0453132 21.5999996,13.2562486 21.5999996,13.4999998 L21.5999996,15.2999998 C21.5999996,15.543751 21.6890613,15.7546864 21.8671871,15.9328122 C22.045313,16.1109381 22.2562484,16.1999997 22.4999996,16.1999997 L24.2999996,16.1999997 C24.5437508,16.1999997 24.7546862,16.1109381 24.9328121,15.9328122 C25.110938,15.7546864 25.1999996,15.543751 25.1999996,15.2999998 L25.1999996,15.2999998 Z M25.1999996,9.89999984 L25.1999996,8.09999987 C25.1999996,7.85624865 25.110938,7.64531327 24.9328121,7.46718738 C24.7546862,7.28906149 24.5437508,7.19999988 24.2999996,7.19999988 L22.4999996,7.19999988 C22.2562484,7.19999988 22.045313,7.28906149 21.8671871,7.46718738 C21.6890613,7.64531327 21.5999996,7.85624865 21.5999996,8.09999987 L21.5999996,9.89999984 C21.5999996,10.1437511 21.6890613,10.3546864 21.8671871,10.5328123 C22.045313,10.7109382 22.2562484,10.7999998 22.4999996,10.7999998 L24.2999996,10.7999998 C24.5437508,10.7999998 24.7546862,10.7109382 24.9328121,10.5328123 C25.110938,10.3546864 25.1999996,10.1437511 25.1999996,9.89999984 L25.1999996,9.89999984 Z M25.1999996,4.49999993 L25.1999996,2.69999996 C25.1999996,2.45624874 25.110938,2.24531335 24.9328121,2.06718747 C24.7546862,1.88906158 24.5437508,1.79999997 24.2999996,1.79999997 L22.4999996,1.79999997 C22.2562484,1.79999997 22.045313,1.88906158 21.8671871,2.06718747 C21.6890613,2.24531335 21.5999996,2.45624874 21.5999996,2.69999996 L21.5999996,4.49999993 C21.5999996,4.74375114 21.6890613,4.95468653 21.8671871,5.13281242 C22.045313,5.3109383 22.2562484,5.39999991 22.4999996,5.39999991 L24.2999996,5.39999991 C24.5437508,5.39999991 24.7546862,5.3109383 24.9328121,5.13281242 C25.110938,4.95468653 25.1999996,4.74375114 25.1999996,4.49999993 L25.1999996,4.49999993 Z M26.9999996,2.24999996 L26.9999996,21.1499997 C26.9999996,21.7687527 26.7796893,22.2984349 26.3390621,22.7390621 C25.8984349,23.1796893 25.3687527,23.3999996 24.7499996,23.3999996 L2.24999996,23.3999996 C1.63124688,23.3999996 1.10156469,23.1796893 0.660937489,22.7390621 C0.220310293,22.2984349 0,21.7687527 0,21.1499997 L0,2.24999996 C0,1.63124688 0.220310293,1.10156469 0.660937489,0.660937489 C1.10156469,0.220310293 1.63124688,0 2.24999996,0 L24.7499996,0 C25.3687527,0 25.8984349,0.220310293 26.3390621,0.660937489 C26.7796893,1.10156469 26.9999996,1.63124688 26.9999996,2.24999996 L26.9999996,2.24999996 Z" id=""></path>
                    </g>
                </g>
            </g>
        </g>
    </g>
</svg>