<?xml version="1.0" encoding="UTF-8" standalone="no"?>
<svg width="27px" height="26px" viewBox="0 0 27 26" version="1.1" xmlns="http://www.w3.org/2000/svg" xmlns:xlink="http://www.w3.org/1999/xlink">
    <!-- Generator: Sketch 3.6.1 (26313) - http://www.bohemiancoding.com/sketch -->
    <title></title>
    <desc>Created with Sketch.</desc>
    <defs></defs>
    <g id="Design" stroke="none" stroke-width="1" fill="none" fill-rule="evenodd">
        <g id="Desktop" transform="translate(-449.000000, -2353.000000)" fill="#2A1A04">
            <g id="About-R18" transform="translate(0.000000, 2085.000000)">
                <g id="r18-details" transform="translate(449.000000, 140.000000)">
                    <g id="Group-9" transform="translate(0.000000, 128.000000)">
                        <path d="M26.5775047,10.7575614 L20.6876181,16.5014178 L22.0830183,24.6142092 C22.0938354,24.689929 22.0992439,24.7980984 22.0992439,24.9387209 C22.0992439,25.1658802 22.0424549,25.357881 21.9288752,25.514729 C21.8152956,25.6715771 21.6503371,25.75 21.433995,25.75 C21.2284699,25.75 21.0121309,25.6850983 20.7849716,25.555293 L13.4996849,21.7260555 L6.21439824,25.555293 C5.97642183,25.6850983 5.76008289,25.75 5.56537492,25.75 C5.33821563,25.75 5.16784871,25.6715771 5.05426906,25.514729 C4.94068941,25.357881 4.88390044,25.1658802 4.88390044,24.9387209 C4.88390044,24.8738182 4.89471739,24.7656487 4.91635161,24.6142092 L6.31175173,16.5014178 L0.405639572,10.7575614 C0.135211838,10.4654995 0,10.2058928 0,9.97873346 C0,9.57850041 0.302874518,9.32971063 0.90863264,9.23235665 L9.05387524,8.0478891 L12.7046314,0.665248897 C12.9101565,0.221747415 13.1751717,0 13.4996849,0 C13.8241982,0 14.0892134,0.221747415 14.2947385,0.665248897 L17.9454946,8.0478891 L26.0907372,9.23235665 C26.6964954,9.32971063 26.9993699,9.57850041 26.9993699,9.97873346 C26.9993699,10.2167099 26.8587496,10.4763166 26.5775047,10.7575614 Z" id=""></path>
                    </g>
                </g>
            </g>
        </g>
    </g>
</svg>