<?xml version="1.0" encoding="UTF-8" standalone="no"?>
<svg width="27px" height="23px" viewBox="0 0 27 23" version="1.1" xmlns="http://www.w3.org/2000/svg" xmlns:xlink="http://www.w3.org/1999/xlink">
    <!-- Generator: Sketch 3.6.1 (26313) - http://www.bohemiancoding.com/sketch -->
    <title>heart</title>
    <desc>Created with Sketch.</desc>
    <defs></defs>
    <g id="Design" stroke="none" stroke-width="1" fill="none" fill-rule="evenodd">
        <g id="Desktop" transform="translate(-449.000000, -2399.000000)" fill="#2A1A04">
            <g id="About-R18" transform="translate(0.000000, 2085.000000)">
                <g id="r18-details" transform="translate(449.000000, 140.000000)">
                    <g id="Group-10" transform="translate(0.000000, 174.000000)">
                        <path d="M23.2438718,0.747031034 C21.3940135,-0.203916871 19.1526097,-0.243306179 17.2546893,0.607903249 C15.7909561,1.26433372 14.7841764,2.25503239 14.1272039,3.39606124 C13.8574406,3.86475949 13.1823995,3.87054156 12.9129974,3.40166273 C12.3004736,2.33543766 11.3829527,1.40020958 10.0733442,0.745586068 C7.80266948,-0.389299549 5.00945231,-0.226321146 2.94512041,1.25096345 C-0.650340571,3.8241058 -0.953711413,8.8580041 2.03482674,11.8463617 C4.9292279,15.2237351 8.03629598,18.3701925 12.0328787,22.0373856 C12.8755959,22.8038535 14.1653291,22.8219221 15.0109374,22.0449744 C18.1866657,19.1532837 21.5568118,15.8527016 24.9179237,12.0048229 C28.1241874,8.79873845 27.6589222,3.01662168 23.2438718,0.747031034 Z" id="heart"></path>
                    </g>
                </g>
            </g>
        </g>
    </g>
</svg>