<?xml version="1.0" encoding="UTF-8" standalone="no"?>
<svg width="20px" height="27px" viewBox="0 0 20 27" version="1.1" xmlns="http://www.w3.org/2000/svg" xmlns:xlink="http://www.w3.org/1999/xlink">
    <!-- Generator: Sketch 3.6.1 (26313) - http://www.bohemiancoding.com/sketch -->
    <title>locked</title>
    <desc>Created with Sketch.</desc>
    <defs></defs>
    <g id="Design" stroke="none" stroke-width="1" fill="none" fill-rule="evenodd">
        <g id="Desktop" transform="translate(-453.000000, -2442.000000)" fill="#2A1A04">
            <g id="About-R18" transform="translate(0.000000, 2085.000000)">
                <g id="r18-details" transform="translate(449.000000, 140.000000)">
                    <g id="Group-11" transform="translate(4.000000, 217.000000)">
                        <path d="M17.935335,10.995132 C17.4911422,10.9320207 17.1351197,10.6032844 17.1351197,10.154451 L17.1351197,7.55481763 C17.1351197,3.58473851 14.0757011,0.122520633 10.1072928,0.00335147184 C6.0009673,-0.119901391 2.63323113,3.17228685 2.63323113,7.25095456 L2.63323113,10.1509238 C2.63323113,10.602913 2.27293916,10.9323917 1.82503366,10.9927188 C0.794461356,11.1315638 0,12.0143811 0,13.0828201 L0,24.8909652 C0,26.055742 0.944258001,27 2.10903479,27 L17.6808474,27 C18.8456242,27 19.7898822,26.055742 19.7898822,24.8909652 L19.7898822,13.0828201 C19.7898822,12.0203208 18.9642365,11.1414015 17.9351492,10.9951314 L17.935335,10.995132 Z M6.1136393,7.17651975 C6.1136393,5.03797088 7.90321913,3.31744238 10.0664555,3.43067179 C12.0947449,3.53684748 13.6159155,5.35742612 13.6159155,7.38868533 L13.6159155,10.0553282 C13.6159155,10.5626326 13.2045775,10.9737847 12.6974586,10.9737847 L7.0320956,10.9737847 C6.52497671,10.9737847 6.11363873,10.5626326 6.11363873,10.0553282 L6.1136393,7.17651975 Z" id="locked"></path>
                    </g>
                </g>
            </g>
        </g>
    </g>
</svg>