<?xml version="1.0" encoding="UTF-8" standalone="no"?>
<svg width="27px" height="23px" viewBox="0 0 27 23" version="1.1" xmlns="http://www.w3.org/2000/svg" xmlns:xlink="http://www.w3.org/1999/xlink">
    <!-- Generator: Sketch 3.6.1 (26313) - http://www.bohemiancoding.com/sketch -->
    <title>download</title>
    <desc>Created with Sketch.</desc>
    <defs></defs>
    <g id="Design" stroke="none" stroke-width="1" fill="none" fill-rule="evenodd">
        <g id="Desktop" transform="translate(-449.000000, -2310.000000)" fill="#2A1A04">
            <g id="About-R18" transform="translate(0.000000, 2085.000000)">
                <g id="r18-details" transform="translate(449.000000, 140.000000)">
                    <g id="Group-8" transform="translate(0.000000, 85.000000)">
                        <path d="M17.6789203,0 C16.6894594,0 15.8870576,0.802401781 15.8870576,1.79186269 L15.8870576,3.93891646 C15.8870576,4.40082602 16.261579,4.77534737 16.7236898,4.77534737 L18.6011285,4.77534737 C19.123646,4.77534737 19.4089667,5.38485054 19.074314,5.78635346 L14.1294256,11.7178837 C13.795981,12.1177758 13.1816454,12.1177758 12.8482008,11.7178837 L7.90311119,5.78635346 C7.56845846,5.3850521 7.8539804,4.77534767 8.37649786,4.77534767 L10.2797101,4.77534767 C10.7418209,4.77534767 11.1163423,4.40082632 11.1163423,3.93891676 L11.1163423,1.79186299 C11.1163423,0.802402089 10.314142,3.07244107e-07 9.32447989,3.07244107e-07 L6.71410723,3.07244107e-07 C5.54221829,3.07244107e-07 4.50080763,0.747834614 4.12628628,1.85810882 L0.260864767,13.3160419 C0.0150095695,14.0449488 -0.0584850643,14.8207715 0.0464212852,15.5827006 L0.789825746,20.989297 C0.908222877,21.8492864 1.6429692,22.4899998 2.51121401,22.4899998 L24.4706419,22.4899998 C25.3368734,22.4899998 26.0710156,21.8517029 26.1912249,20.9937271 L26.9481201,15.5923659 C27.0558454,14.8241948 26.9823508,14.0415261 26.7332742,13.3067797 L22.8529522,1.85468581 C22.4774244,0.746022488 21.4370205,3.07244107e-07 20.2663397,3.07244107e-07 L17.6789203,0 Z M3.69297009,20.2336101 C3.19320559,20.2336101 2.77760786,19.8492225 2.7383436,19.3510689 L2.52067835,16.5771957 C2.46047295,15.8120448 3.06534473,15.1578407 3.83291179,15.1578407 L23.1704896,15.1582435 C23.9380567,15.1582435 24.5429285,15.8122461 24.4829246,16.5775982 L24.2650578,19.3512702 C24.2259948,19.849625 23.8101958,20.2340126 23.3104313,20.2340126 L3.69297009,20.2336101 Z" id="download"></path>
                    </g>
                </g>
            </g>
        </g>
    </g>
</svg>