<?xml version="1.0" encoding="UTF-8" standalone="no"?>
<svg width="20px" height="12px" viewBox="0 0 20 12" version="1.1" xmlns="http://www.w3.org/2000/svg" xmlns:xlink="http://www.w3.org/1999/xlink">
    <!-- Generator: Sketch 3.6.1 (26313) - http://www.bohemiancoding.com/sketch -->
    <title>eye</title>
    <desc>Created with Sketch.</desc>
    <defs></defs>
    <g id="Design" stroke="none" stroke-width="1" fill="none" fill-rule="evenodd">
        <g id="Mobile-Portrait-Copy" transform="translate(-327.000000, -1078.000000)" fill="#A9A9A9">
            <g id="Mobile-form" transform="translate(0.000000, 761.000000)">
                <path d="M346.694786,322.028087 C345.469022,320.368745 342.325554,317 337.005153,317 C331.704949,317 328.537442,320.377047 327.302136,322.034283 C326.904741,322.56724 326.898546,323.299823 327.288381,323.83848 C328.490974,325.500053 331.592063,328.86 337.005029,328.86 C342.351452,328.86 345.479555,325.495344 346.697761,323.834887 C347.091685,323.297964 347.090322,322.56377 346.694663,322.028087 L346.694786,322.028087 Z M336.996974,327.002518 C334.747923,327.002518 332.924642,325.179237 332.924642,322.930062 C332.924642,320.68101 334.747923,318.857729 336.996974,318.857729 C339.246026,318.857729 341.069307,320.68101 341.069307,322.930062 C341.069307,325.179237 339.246026,327.002518 336.996974,327.002518 L336.996974,327.002518 Z M339.195345,322.930062 C339.195345,321.715946 338.211091,320.731691 336.996975,320.731691 C335.782858,320.731691 334.798604,321.715946 334.798604,322.930062 C334.798604,324.144178 335.782858,325.128432 336.996975,325.128432 C338.211091,325.128432 339.195345,324.144178 339.195345,322.930062 L339.195345,322.930062 Z" id="eye"></path>
            </g>
        </g>
    </g>
</svg>