<?xml version="1.0" encoding="UTF-8" standalone="no"?>
<svg width="20px" height="15px" viewBox="0 0 20 15" version="1.1" xmlns="http://www.w3.org/2000/svg" xmlns:xlink="http://www.w3.org/1999/xlink">
    <!-- Generator: Sketch 39.1 (31720) - http://www.bohemiancoding.com/sketch -->
    <title>download</title>
    <desc>Created with Sketch.</desc>
    <defs></defs>
    <g id="Design" stroke="none" stroke-width="1" fill="none" fill-rule="evenodd">
        <g id="Tab" transform="translate(-243.000000, -1757.000000)" fill="#FFFFFF">
            <g id="About-R18" transform="translate(23.000000, 1754.000000)">
                <g id="r18-details">
                    <g id="Group-8" transform="translate(220.725092, 3.132457)">
                        <path d="M12.0917144,0 C11.4149604,0 10.8661479,0.526534392 10.8661479,1.17581659 L10.8661479,2.58470884 C10.8661479,2.88781294 11.1223064,3.13357308 11.4383727,3.13357308 L12.72247,3.13357308 C13.0798522,3.13357308 13.2750008,3.53352781 13.046111,3.79699319 L9.66399393,7.68925111 C9.43593037,7.95165944 9.01574806,7.95165944 8.7876845,7.68925111 L5.40542983,3.79699319 C5.17653998,3.53366006 5.37182622,3.13357328 5.72920844,3.13357328 L7.0309338,3.13357328 C7.34700015,3.13357328 7.60315862,2.88781315 7.60315862,2.58470905 L7.60315862,1.1758168 C7.60315862,0.526534594 7.05448394,2.01612948e-07 6.37759238,2.01612948e-07 L4.59219598,2.01612948e-07 C3.79066817,2.01612948e-07 3.07838258,0.490727529 2.82222411,1.21928717 L0.178421657,8.73795921 C0.0102659791,9.21626638 -0.040001577,9.72535963 0.0317504073,10.225336 L0.540211006,13.7731333 C0.621190175,14.3374566 1.12372893,14.7578914 1.71757562,14.7578914 L16.7369957,14.7578914 C17.3294653,14.7578914 17.8315909,14.3390423 17.9138095,13.7760404 L18.4314973,10.2316783 C18.5051773,9.72760601 18.4549098,9.21402041 18.2845507,8.73188139 L15.630557,1.217041 C15.3737101,0.489538416 14.6621131,2.01612948e-07 13.8614116,2.01612948e-07 L12.0917144,0 Z M2.52585218,13.2772532 C2.18403213,13.2772532 1.89977896,13.0250188 1.87292369,12.6981315 L1.72404887,10.8779216 C1.68287065,10.3758312 2.09658012,9.94654376 2.62156703,9.94654376 L15.8477405,9.94680807 C16.3727275,9.94680807 16.7864369,10.3759632 16.7453966,10.8781857 L16.5963839,12.6982635 C16.5696663,13.025283 16.2852754,13.2775173 15.9434554,13.2775173 L2.52585218,13.2772532 Z" id="download"></path>
                    </g>
                </g>
            </g>
        </g>
    </g>
</svg>