<?xml version="1.0" encoding="UTF-8" standalone="no"?>
<svg width="19px" height="10px" viewBox="0 0 19 10" version="1.1" xmlns="http://www.w3.org/2000/svg" xmlns:xlink="http://www.w3.org/1999/xlink">
    <!-- Generator: Sketch 39.1 (31720) - http://www.bohemiancoding.com/sketch -->
    <title>HD</title>
    <desc>Created with Sketch.</desc>
    <defs></defs>
    <g id="Design" stroke="none" stroke-width="1" fill="none" fill-rule="evenodd">
        <g id="Tab" transform="translate(-23.000000, -1759.000000)" fill="#FFFFFF">
            <g id="About-R18" transform="translate(23.000000, 1754.000000)">
                <g id="r18-details">
                    <g id="Group-6" transform="translate(0.394327, 1.476259)">
                        <path d="M8.39354974,12.7171963 L8.39354974,4.36379692 L5.75669586,4.36379692 L5.75669586,7.3194225 L2.63685388,7.3194225 L2.63685388,4.36379692 L0,4.36379692 L0,12.7171963 L2.63685388,12.7171963 L2.63685388,9.52361785 L5.75669586,9.52361785 L5.75669586,12.7171963 L8.39354974,12.7171963 Z M13.7064187,12.7171963 C16.4346487,12.7171963 18.4710309,11.201812 18.4710309,8.53423471 C18.4710309,5.86665739 16.4346487,4.36379692 13.693365,4.36379692 L9.80335281,4.36379692 L9.80335281,12.7171963 L13.7064187,12.7171963 Z M13.693365,10.513001 L12.4402067,10.513001 L12.4402067,6.56799227 L13.7064187,6.56799227 C15.1162218,6.56799227 15.7950158,7.40708936 15.7950158,8.53423471 C15.7950158,9.58623703 15.0117919,10.513001 13.693365,10.513001 L13.693365,10.513001 Z" id="HD"></path>
                    </g>
                </g>
            </g>
        </g>
    </g>
</svg>