<?xml version="1.0" encoding="UTF-8" standalone="no"?>
<svg width="20px" height="16px" viewBox="0 0 20 16" version="1.1" xmlns="http://www.w3.org/2000/svg" xmlns:xlink="http://www.w3.org/1999/xlink">
    <!-- Generator: Sketch 39.1 (31720) - http://www.bohemiancoding.com/sketch -->
    <title>heart</title>
    <desc>Created with Sketch.</desc>
    <defs></defs>
    <g id="Design" stroke="none" stroke-width="1" fill="none" fill-rule="evenodd">
        <g id="Tab" transform="translate(-621.000000, -1756.000000)" fill="#FFFFFF">
            <g id="About-R18" transform="translate(23.000000, 1754.000000)">
                <g id="r18-details">
                    <g id="Group-10" transform="translate(598.943396, 0.820061)">
                        <path d="M15.8979312,2.2292054 C14.6326979,1.60519535 13.0996623,1.57934817 11.8015564,2.13791004 C10.8004181,2.56865836 10.1118188,3.21875278 9.66247439,3.96749356 C9.47796645,4.27505238 9.01626384,4.27884656 8.83200293,3.97116924 C8.4130598,3.27151455 7.78551008,2.65781982 6.8897873,2.22825722 C5.33673148,1.48354762 3.42627634,1.59049371 2.01435122,2.55988481 C-0.444808409,4.24837551 -0.652302618,7.55160918 1.39174471,9.51256325 C3.37140588,11.7287887 5.49652319,13.7934876 8.23003498,16.1998921 C8.80642173,16.7028468 9.68855059,16.7147033 10.2669147,16.2048719 C12.4389931,14.3073504 14.7440458,12.1415152 17.0429195,9.6165452 C19.2358829,7.51271918 18.9176591,3.7185061 15.8979312,2.2292054 Z" id="heart"></path>
                    </g>
                </g>
            </g>
        </g>
    </g>
</svg>