<?xml version="1.0" encoding="UTF-8" standalone="no"?>
<svg width="14px" height="19px" viewBox="0 0 14 19" version="1.1" xmlns="http://www.w3.org/2000/svg" xmlns:xlink="http://www.w3.org/1999/xlink">
    <!-- Generator: Sketch 39.1 (31720) - http://www.bohemiancoding.com/sketch -->
    <title>locked</title>
    <desc>Created with Sketch.</desc>
    <defs></defs>
    <g id="Design" stroke="none" stroke-width="1" fill="none" fill-rule="evenodd">
        <g id="Tab" transform="translate(-418.000000, -1754.000000)" fill="#FFFFFF">
            <g id="About-R18" transform="translate(23.000000, 1754.000000)">
                <g id="r18-details">
                    <g id="Group-11" transform="translate(395.330189, 0.590472)">
                        <path d="M12.2670923,7.2149829 C11.9632812,7.1735694 11.7197753,6.9578533 11.7197753,6.66332977 L11.7197753,4.95745573 C11.7197753,2.35229801 9.62724838,0.0803977862 6.91300684,0.0021992289 C4.10443518,-0.0786790454 1.80103073,2.08164808 1.80103073,4.75806141 L1.80103073,6.66101526 C1.80103073,6.95760964 1.55460461,7.17381288 1.24825416,7.21339938 C0.543381588,7.3045092 0,7.88381205 0,8.58491953 L0,16.3334 C0,17.0977241 0.64583684,17.7173442 1.44250021,17.7173442 L12.0930324,17.7173442 C12.8896958,17.7173442 13.5355326,17.0977241 13.5355326,16.3334 L13.5355326,8.58491953 C13.5355326,7.8877097 12.9708221,7.31096465 12.2669653,7.21498253 L12.2670923,7.2149829 Z M4.18149858,4.70921744 C4.18149858,3.30590609 5.40550365,2.17689884 6.88507566,2.25119974 C8.27234913,2.32087201 9.3127724,3.51553196 9.3127724,4.84844006 L9.3127724,6.59828558 C9.3127724,6.93117768 9.03143275,7.20097489 8.68458257,7.20097489 L4.80968803,7.20097489 C4.46283784,7.20097489 4.18149819,6.93117768 4.18149819,6.59828558 L4.18149858,4.70921744 Z" id="locked"></path>
                    </g>
                </g>
            </g>
        </g>
    </g>
</svg>